<?xml version="1.0" standalone="no"?>
<!DOCTYPE svg PUBLIC "-//W3C//DTD SVG 20010904//EN"
 "http://www.w3.org/TR/2001/REC-SVG-20010904/DTD/svg10.dtd">
<svg version="1.0" xmlns="http://www.w3.org/2000/svg"
 width="512.000000pt" height="512.000000pt" viewBox="0 0 512.000000 512.000000"
 preserveAspectRatio="xMidYMid meet">

<g transform="translate(0.000000,512.000000) scale(0.100000,-0.100000)"
fill="#FFFFFF" stroke="none">
<path d="M2524 5108 c-42 -20 -44 -42 -44 -449 0 -329 2 -395 15 -419 27 -53
103 -53 130 0 13 24 15 90 15 419 0 265 -4 398 -11 414 -11 24 -48 48 -72 46
-7 0 -22 -5 -33 -11z"/>
<path d="M1725 4569 c-29 -16 -45 -40 -45 -65 0 -31 148 -385 173 -411 12 -14
32 -23 49 -23 34 0 78 39 78 70 0 25 -154 399 -172 416 -19 19 -60 25 -83 13z"/>
<path d="M3333 4570 c-12 -5 -28 -22 -36 -37 -33 -64 -157 -375 -157 -394 0
-30 44 -69 78 -69 17 0 37 9 49 23 23 24 173 379 173 407 0 32 -12 50 -41 65
-32 17 -35 17 -66 5z"/>
<path d="M752 4367 c-50 -53 -46 -58 271 -375 256 -256 296 -292 323 -292 39
0 74 36 74 76 0 25 -42 71 -293 322 -256 256 -296 292 -323 292 -19 0 -39 -9
-52 -23z"/>
<path d="M3992 4097 c-256 -256 -292 -296 -292 -323 0 -39 36 -74 76 -74 25 0
71 42 322 293 256 256 292 296 292 323 0 39 -36 74 -76 74 -25 0 -71 -42 -322
-293z"/>
<path d="M2415 3990 c-336 -38 -636 -183 -877 -425 -206 -206 -341 -470 -395
-770 -22 -119 -22 -351 0 -470 96 -532 462 -960 967 -1128 437 -146 933 -66
1307 211 635 472 767 1382 291 2013 -219 291 -547 492 -904 554 -108 19 -290
26 -389 15z"/>
<path d="M579 3430 c-48 -28 -43 -107 8 -133 69 -35 374 -157 393 -157 31 0
70 44 70 78 0 17 -9 37 -22 49 -27 25 -381 173 -412 173 -11 0 -28 -5 -37 -10z"/>
<path d="M4293 3362 c-100 -42 -191 -86 -202 -96 -12 -11 -21 -32 -21 -48 0
-34 39 -78 70 -78 19 0 326 122 393 157 72 37 46 145 -35 142 -13 0 -105 -35
-205 -77z"/>
<path d="M43 2628 c-12 -6 -27 -23 -34 -39 -15 -37 2 -82 37 -98 17 -7 146
-11 415 -11 329 0 395 2 419 15 53 27 53 103 0 130 -25 13 -89 15 -422 14
-253 0 -401 -4 -415 -11z"/>
<path d="M4238 2624 c-51 -27 -50 -102 2 -129 24 -13 90 -15 419 -15 269 0
398 4 415 11 55 26 55 112 0 138 -17 8 -146 11 -417 11 -327 -1 -397 -3 -419
-16z"/>
<path d="M767 1900 c-104 -43 -194 -84 -202 -90 -48 -40 -10 -130 55 -130 28
0 383 150 408 173 13 12 22 32 22 49 0 35 -40 78 -72 78 -13 -1 -108 -36 -211
-80z"/>
<path d="M4095 1955 c-32 -31 -33 -75 -2 -102 25 -24 379 -173 409 -173 78 0
101 108 31 143 -67 35 -374 157 -393 157 -11 0 -32 -11 -45 -25z"/>
<path d="M1022 1127 c-256 -256 -292 -296 -292 -323 0 -39 36 -74 76 -74 25 0
71 42 322 293 263 263 292 295 292 325 0 42 -30 72 -73 72 -29 0 -61 -29 -325
-293z"/>
<path d="M3720 1400 c-12 -12 -20 -33 -20 -53 0 -29 29 -61 293 -325 256 -256
296 -292 323 -292 39 0 74 36 74 76 0 25 -42 71 -293 322 -263 263 -295 292
-325 292 -19 0 -40 -8 -52 -20z"/>
<path d="M1853 1028 c-24 -26 -173 -380 -173 -410 0 -78 107 -101 143 -31 33
64 157 375 157 394 0 30 -44 69 -78 69 -17 0 -37 -9 -49 -22z"/>
<path d="M3165 1025 c-14 -13 -25 -33 -25 -44 0 -19 124 -330 157 -394 36 -70
143 -47 143 31 0 30 -149 384 -173 410 -27 30 -71 29 -102 -3z"/>
<path d="M2522 913 c-7 -3 -19 -18 -27 -33 -13 -24 -15 -94 -15 -419 0 -269 4
-398 11 -415 16 -35 61 -52 98 -37 15 7 33 24 40 37 7 17 11 146 11 415 0 410
-3 436 -45 453 -19 7 -54 7 -73 -1z"/>
</g>
</svg>
